# xmcd
#
# Track frame offsets:
# 150
# 13042
# 23045
# 36752
# 47562
# 57997
# 67905
# 79040
# 91490
# 102822
# 116175
# 128850
# 137090
# 148717
#
# Disc length: 2134 seconds
#
# Revision: 0
# Processed by: cddbd v1.4PL0 Copyright (c) Steve Scherf et al.
# Submitted via: Audion 3.0.2 (http://www.panic.com/audion/)
#
DISCID=bb08540e
DTITLE=willie nelson - absolutely the best * vol1
DYEAR=1900
DGENRE=
TTITLE0=crazy
TTITLE1=touch me
TTITLE2=funny how time slips away
TTITLE3=hello walls
TTITLE4=the part where i cry
TTITLE5=right or wrong
TTITLE6=half a man
TTITLE7=mr. record man
TTITLE8=night life
TTITLE9=three day's
TTITLE10=wake me when it's over
TTITLE11=take my word
TTITLE12=undo the right
TTITLE13=you took my happy away
EXTD=
EXTT0=
EXTT1=
EXTT2=
EXTT3=
EXTT4=
EXTT5=
EXTT6=
EXTT7=
EXTT8=
EXTT9=
EXTT10=
EXTT11=
EXTT12=
EXTT13=
PLAYORDER=
